# Blender v2.82 (sub 7) OBJ File: 'cube.blend'
# www.blender.org
mtllib cube.mtl
o Cube_Cube.001
v -1.000000 1.000000 1.000000
v -1.000000 -1.000000 -1.000000
v -1.000000 -1.000000 1.000000
v -1.000000 1.000000 -1.000000
v 1.000000 -1.000000 -1.000000
v 1.000000 1.000000 -1.000000
v 1.000000 -1.000000 1.000000
v 1.000000 1.000000 1.000000
vt 0.738889 0.752495
vt 0.489737 0.501736
vt 0.739692 0.502540
vt 0.488933 0.751691
vt 0.239781 0.500932
vt 0.491344 0.001825
vt 0.740496 0.252584
vt 0.490540 0.251781
vt 0.988844 0.753299
vt 0.989648 0.503343
vt 0.738085 1.002450
vt 0.488129 1.001647
vt 0.238978 0.750888
vt 0.741299 0.002629
vn -1.0000 -0.0000 0.0000
vn 0.0000 0.0000 -1.0000
vn 1.0000 -0.0000 0.0000
vn 0.0000 -0.0000 1.0000
vn 0.0000 -1.0000 -0.0000
vn 0.0000 1.0000 0.0000
g Cube_Cube.001_Cube_Cube.001_None
usemtl None
s 1
f 1/1/1 2/2/1 3/3/1
f 4/4/2 5/5/2 2/2/2
f 6/6/3 7/7/3 5/8/3
f 8/9/4 3/3/4 7/10/4
f 5/8/5 3/3/5 2/2/5
f 4/4/6 8/11/6 6/12/6
f 1/1/1 4/4/1 2/2/1
f 4/4/2 6/13/2 5/5/2
f 6/6/3 8/14/3 7/7/3
f 8/9/4 1/1/4 3/3/4
f 5/8/5 7/7/5 3/3/5
f 4/4/6 1/1/6 8/11/6
