# Blender v2.82 (sub 7) OBJ File: 'tank.blend'
# www.blender.org
mtllib tank.mtl
o Cube_Cube.001
v -1.000000 -1.166783 1.166783
v -1.000000 1.166783 1.166783
v -1.000000 -1.166783 -1.166783
v -1.000000 1.166783 -1.166783
v 1.000000 -0.170872 0.170872
v 1.000000 0.170872 0.170872
v 1.000000 -0.170872 -0.170872
v 1.000000 0.170872 -0.170872
v -1.587110 -1.166783 -1.166783
v -1.587110 -1.166783 1.166783
v -1.587110 1.166783 1.166783
v -1.587110 1.166783 -1.166783
v -1.587110 -0.787196 -0.787196
v -1.587110 -0.787196 0.787196
v -1.587110 0.787196 0.787196
v -1.587110 0.787196 -0.787196
v -1.154826 -0.787196 -0.787196
v -1.154826 -0.787196 0.787196
v -1.154826 0.787196 0.787196
v -1.154826 0.787196 -0.787196
v 1.327038 0.170872 -0.170872
v 1.327038 -0.170872 -0.170872
v 1.327038 -0.170872 0.170872
v 1.327038 0.170872 0.170872
vt 0.532665 0.274665
vt 0.803747 0.362327
vt 0.766867 0.421251
vt 0.492271 0.561458
vt 0.510473 0.671571
vt 0.506026 0.615747
vt 0.536037 0.640210
vt 0.451155 0.662520
vt 0.187892 0.647942
vt 0.435049 0.631895
vt 0.432834 0.591567
vt 0.177850 0.763900
vt 0.162724 0.488525
vt 0.815561 0.715948
vt 0.869438 0.759865
vt 0.758108 0.967568
vt 0.694880 0.974007
vt 0.297869 0.857065
vt 0.135278 0.675612
vt 0.641004 0.930090
vt 0.093441 0.492330
vt 0.631486 0.201490
vt 0.816649 0.257002
vt 0.789495 0.300387
vt 0.108567 0.767706
vt 0.051108 0.539585
vt 0.569545 0.215742
vt 0.245255 0.884735
vt 0.119150 0.727518
vt 0.915546 0.098993
vt 0.658640 0.158105
vt 0.757537 0.000096
vt 0.193349 0.868607
vt 0.080411 0.747891
vt 0.875877 0.823093
vt 0.797777 0.999904
vt 0.061313 0.725373
vt 0.000096 0.542387
vt 0.462559 0.622967
vt 0.471728 0.594280
vt 0.526569 0.582925
vt 0.480462 0.647107
vt 0.154610 0.888980
vt 0.915546 0.855429
vt 0.010301 0.728175
vn 0.0000 0.0000 -1.0000
vn 0.4457 0.0000 -0.8952
vn 0.0000 1.0000 0.0000
vn 0.4457 0.0000 0.8952
vn 0.4457 -0.8952 0.0000
vn 0.4457 0.8952 0.0000
vn -1.0000 0.0000 0.0000
vn 0.0000 0.0000 1.0000
vn 0.0000 -1.0000 0.0000
vn 1.0000 0.0000 0.0000
usemtl Material.001
s off
f 3/1/1 12/2/1 4/3/1
f 4/3/2 7/4/2 3/1/2
f 6/5/3 21/6/3 8/7/3
f 6/8/4 1/9/4 5/10/4
f 7/11/5 1/12/5 3/13/5
f 4/14/6 6/5/6 8/7/6
f 12/15/7 15/16/7 11/17/7
f 2/18/8 10/19/8 1/9/8
f 4/14/3 11/17/3 2/20/3
f 1/12/9 9/21/9 3/13/9
f 13/22/8 20/23/8 16/24/8
f 10/25/7 13/26/7 9/21/7
f 9/27/7 16/24/7 12/2/7
f 11/28/7 14/29/7 10/19/7
f 19/30/7 17/31/7 18/32/7
f 15/33/1 18/34/1 14/29/1
f 16/35/9 19/36/9 15/16/9
f 14/37/3 17/38/3 13/26/3
f 21/6/10 23/39/10 22/40/10
f 8/41/1 22/40/1 7/4/1
f 5/10/8 24/42/8 6/8/8
f 7/11/9 23/39/9 5/10/9
f 3/1/1 9/27/1 12/2/1
f 4/3/2 8/41/2 7/4/2
f 6/5/3 24/42/3 21/6/3
f 6/8/4 2/18/4 1/9/4
f 7/11/5 5/10/5 1/12/5
f 4/14/6 2/20/6 6/5/6
f 12/15/7 16/35/7 15/16/7
f 2/18/8 11/28/8 10/19/8
f 4/14/3 12/15/3 11/17/3
f 1/12/9 10/25/9 9/21/9
f 13/22/8 17/31/8 20/23/8
f 10/25/7 14/37/7 13/26/7
f 9/27/7 13/22/7 16/24/7
f 11/28/7 15/33/7 14/29/7
f 19/30/7 20/23/7 17/31/7
f 15/33/1 19/43/1 18/34/1
f 16/35/9 20/44/9 19/36/9
f 14/37/3 18/45/3 17/38/3
f 21/6/10 24/42/10 23/39/10
f 8/41/1 21/6/1 22/40/1
f 5/10/8 23/39/8 24/42/8
f 7/11/9 22/40/9 23/39/9
