# Blender v2.82 (sub 7) OBJ File: 'tank.blend'
# www.blender.org
mtllib tank.mtl
o Cube_Cube.001
v -1.000000 -0.131377 0.002413
v -1.000000 0.684278 0.002413
v -1.000000 -0.131377 -1.166783
v -1.000000 0.765750 -1.166783
v 1.000000 -0.170872 0.004547
v 1.000000 0.011935 0.004547
v 1.000000 -0.170872 -0.235496
v 1.000000 0.011935 -0.170872
v -1.587110 -0.131377 -1.166783
v -1.587110 -0.131377 0.002413
v -1.587110 0.684278 0.002413
v -1.587110 0.765750 -1.166783
v -1.587110 -0.029093 -0.787196
v -1.587110 -0.029093 -0.377174
v -1.587110 0.660647 -0.377174
v -1.587110 0.660647 -0.787196
v -1.154826 -0.029093 -0.787196
v -1.154826 -0.029093 -0.377174
v -1.154826 0.660647 -0.377174
v -1.154826 0.660647 -0.787196
v 1.327038 -0.041157 -0.170872
v 1.327038 -0.170872 -0.235496
v 1.327038 -0.170872 0.004547
v 1.327038 -0.041157 0.004547
v -1.000000 0.155291 -1.445892
v -1.000000 -0.131377 -1.569441
v -1.587110 0.155291 -1.445892
v -1.587110 -0.131377 -1.569441
v -1.160887 0.814199 -0.310486
v -1.160887 0.851019 -0.838889
v -1.426223 0.814199 -0.310486
v -1.426223 0.851019 -0.838889
v -1.160887 0.909616 -0.303838
v -1.160887 0.946436 -0.484805
v -1.426223 0.909616 -0.303838
v -1.426223 0.946436 -0.484805
v -1.261132 1.272626 -0.301179
v -1.261132 1.281624 -0.345405
v -1.325978 1.272626 -0.301179
v -1.325978 1.281624 -0.345405
v -1.210057 0.090466 -1.577662
v -1.210057 0.008927 -1.612804
v -1.377053 0.090466 -1.577662
v -1.377053 0.008927 -1.612804
v -1.258309 0.148899 -1.778062
v -1.258309 0.114479 -1.792896
v -1.328801 0.148899 -1.778062
v -1.328801 0.114479 -1.792896
v -1.000000 -0.131377 -0.002413
v -1.000000 0.684278 -0.002413
v -1.000000 -0.131377 1.166783
v -1.000000 0.765750 1.166783
v 1.000000 -0.170872 -0.004547
v 1.000000 0.011935 -0.004547
v 1.000000 -0.170872 0.235496
v 1.000000 0.011935 0.170872
v -1.587110 -0.131377 1.166783
v -1.587110 -0.131377 -0.002413
v -1.587110 0.684278 -0.002413
v -1.587110 0.765750 1.166783
v -1.587110 -0.029093 0.787196
v -1.587110 -0.029093 0.377174
v -1.587110 0.660647 0.377174
v -1.587110 0.660647 0.787196
v -1.154826 -0.029093 0.787196
v -1.154826 -0.029093 0.377174
v -1.154826 0.660647 0.377174
v -1.154826 0.660647 0.787196
v 1.327038 -0.041157 0.170872
v 1.327038 -0.170872 0.235496
v 1.327038 -0.170872 -0.004547
v 1.327038 -0.041157 -0.004547
v -1.000000 0.155291 1.445892
v -1.000000 -0.131377 1.569441
v -1.587110 0.155291 1.445892
v -1.587110 -0.131377 1.569441
v -1.160887 0.814199 0.310486
v -1.160887 0.851019 0.838889
v -1.426223 0.814199 0.310486
v -1.426223 0.851019 0.838889
v -1.160887 0.909616 0.303838
v -1.160887 0.946436 0.484805
v -1.426223 0.909616 0.303838
v -1.426223 0.946436 0.484805
v -1.261132 1.272626 0.301179
v -1.261132 1.281624 0.345405
v -1.325978 1.272626 0.301179
v -1.325978 1.281624 0.345405
v -1.210057 0.090466 1.577662
v -1.210057 0.008927 1.612804
v -1.377053 0.090466 1.577662
v -1.377053 0.008927 1.612804
v -1.258309 0.148899 1.778062
v -1.258309 0.114479 1.792896
v -1.328801 0.148899 1.778062
v -1.328801 0.114479 1.792896
vt 0.227360 0.293876
vt 0.175919 0.242436
vt 0.175919 0.242436
vt 0.431819 0.772641
vt 0.510375 0.459682
vt 0.540317 0.489625
vt 0.540317 0.372432
vt 0.539029 0.431028
vt 0.510375 0.402374
vt 0.597625 0.489625
vt 0.910583 0.568181
vt 0.706124 0.772640
vt 0.431819 0.089417
vt 0.380378 0.037977
vt 0.175919 0.175920
vt 0.313862 0.037977
vt 0.431819 0.089417
vt 0.757564 0.824081
vt 0.313861 0.824081
vt 0.138043 0.724014
vt 0.175918 0.686139
vt 0.962024 0.619621
vt 0.824081 0.824081
vt 0.380378 0.824081
vt 0.175918 0.619622
vt 0.757564 0.037975
vt 0.962024 0.175918
vt 0.962024 0.242435
vt 0.000100 0.861957
vt 0.275986 0.861957
vt 0.138043 0.999900
vt 0.824081 0.037975
vt 0.999899 0.138043
vt 0.275987 0.000102
vt 0.962024 0.686138
vt 0.861956 0.861956
vt 0.598913 0.431028
vt 0.568971 0.460971
vt 0.627567 0.459682
vt 0.227360 0.293876
vt 0.175919 0.242436
vt 0.175918 0.619622
vt 0.380378 0.824081
vt 0.706124 0.772640
vt 0.227359 0.568181
vt 0.227359 0.568181
vt 0.175919 0.242436
vt 0.227360 0.293876
vt 0.227360 0.293876
vt 0.000000 0.000000
vt 0.000000 0.000000
vt 0.000000 0.000000
vt 0.175919 0.242436
vt 0.227360 0.293876
vt 0.431819 0.089417
vt 0.000000 0.000000
vt 0.000000 0.000000
vt 0.380378 0.037977
vt 0.380378 0.037977
vt 0.431819 0.089417
vt 0.000000 0.000000
vt 0.000000 0.000000
vt 0.380378 0.037977
vt 0.175919 0.242436
vt 0.757564 0.824081
vt 0.706124 0.772640
vt 0.706124 0.772640
vt 0.380378 0.824081
vt 0.757564 0.824081
vt 0.431819 0.772641
vt 0.227359 0.568181
vt 0.431819 0.772641
vt 0.175918 0.619622
vt 0.227359 0.568181
vt 0.227360 0.293876
vt 0.175919 0.242436
vt 0.380378 0.824081
vt 0.568971 0.401086
vt 0.861956 0.000100
vt 0.138044 0.138044
vt 0.999899 0.724013
vt 0.227360 0.293876
vt 0.431819 0.772641
vt 0.000000 0.000000
vt 0.757564 0.824081
vt 0.175918 0.619622
vt 0.227360 0.293876
vt 0.175919 0.242436
vt 0.175919 0.242436
vt 0.431819 0.772641
vt 0.540317 0.489625
vt 0.510375 0.459682
vt 0.540317 0.372432
vt 0.510375 0.402374
vt 0.539029 0.431028
vt 0.597625 0.489625
vt 0.706124 0.772640
vt 0.910583 0.568181
vt 0.431819 0.089417
vt 0.380378 0.037977
vt 0.313862 0.037977
vt 0.175919 0.175920
vt 0.431819 0.089417
vt 0.757564 0.824081
vt 0.313861 0.824081
vt 0.175918 0.686139
vt 0.138043 0.724014
vt 0.962024 0.619621
vt 0.824081 0.824081
vt 0.380378 0.824081
vt 0.175918 0.619622
vt 0.757564 0.037975
vt 0.962024 0.242435
vt 0.962024 0.175918
vt 0.000100 0.861957
vt 0.138043 0.999900
vt 0.275986 0.861957
vt 0.824081 0.037975
vt 0.999899 0.138043
vt 0.275987 0.000102
vt 0.962024 0.686138
vt 0.861956 0.861956
vt 0.568971 0.460971
vt 0.598913 0.431028
vt 0.627567 0.459682
vt 0.227360 0.293876
vt 0.175919 0.242436
vt 0.380378 0.824081
vt 0.175918 0.619622
vt 0.706124 0.772640
vt 0.227359 0.568181
vt 0.227359 0.568181
vt 0.175919 0.242436
vt 0.227360 0.293876
vt 0.227360 0.293876
vt 0.000000 0.000000
vt 0.000000 0.000000
vt 0.000000 0.000000
vt 0.175919 0.242436
vt 0.227360 0.293876
vt 0.431819 0.089417
vt 0.000000 0.000000
vt 0.000000 0.000000
vt 0.380378 0.037977
vt 0.431819 0.089417
vt 0.380378 0.037977
vt 0.000000 0.000000
vt 0.000000 0.000000
vt 0.380378 0.037977
vt 0.175919 0.242436
vt 0.757564 0.824081
vt 0.706124 0.772640
vt 0.706124 0.772640
vt 0.380378 0.824081
vt 0.757564 0.824081
vt 0.227359 0.568181
vt 0.431819 0.772641
vt 0.431819 0.772641
vt 0.227359 0.568181
vt 0.175918 0.619622
vt 0.175919 0.242436
vt 0.227360 0.293876
vt 0.380378 0.824081
vt 0.568971 0.401086
vt 0.861956 0.000100
vt 0.138044 0.138044
vt 0.999899 0.724013
vt 0.227360 0.293876
vt 0.431819 0.772641
vt 0.000000 0.000000
vt 0.757564 0.824081
vt 0.175918 0.619622
vn 0.0000 0.4158 -0.9095
vn 0.4070 0.3044 -0.8612
vn 0.1602 0.9871 0.0000
vn -0.0197 -0.9998 0.0000
vn 0.3186 0.9479 0.0000
vn -1.0000 0.0000 0.0000
vn 0.5568 0.8286 0.0577
vn 0.0000 -1.0000 0.0000
vn 0.0000 0.0000 1.0000
vn 0.0000 0.0000 -1.0000
vn 0.0000 1.0000 0.0000
vn 1.0000 0.0000 0.0000
vn 0.0000 0.4459 -0.8951
vn 0.0000 0.8973 -0.4414
vn 0.0000 0.9656 -0.2602
vn -0.5568 0.8286 0.0577
vn 0.0000 0.9678 -0.2517
vn 0.0000 0.9236 0.3835
vn 0.0000 0.3840 -0.9233
vn 0.0000 -0.0695 0.9976
vn 0.0000 0.9799 0.1994
vn 0.9626 0.2654 0.0540
vn 0.0000 -0.0073 1.0000
vn -0.9626 0.2654 0.0540
vn 0.0000 -0.8627 -0.5057
vn -0.4133 0.3604 -0.8362
vn 0.0000 -0.2953 -0.9554
vn 0.4133 0.3604 -0.8362
vn 0.0000 0.3958 -0.9183
vn 0.9739 0.0898 -0.2083
vn 0.0000 0.9600 0.2799
vn -0.9739 0.0898 -0.2083
vn 0.4457 0.0000 -0.8952
vn 0.3231 0.9441 0.0658
vn 0.0540 0.3328 -0.9414
vn 0.0000 0.4158 0.9095
vn 0.4070 0.3044 0.8612
vn 0.5568 0.8286 -0.0577
vn 0.0000 0.4459 0.8951
vn 0.0000 0.8973 0.4414
vn 0.0000 0.9656 0.2602
vn -0.5568 0.8286 -0.0577
vn 0.0000 0.9678 0.2517
vn 0.0000 0.9236 -0.3835
vn 0.0000 0.3840 0.9233
vn 0.0000 -0.0695 -0.9976
vn 0.0000 0.9799 -0.1994
vn 0.9626 0.2654 -0.0540
vn 0.0000 -0.0073 -1.0000
vn -0.9626 0.2654 -0.0540
vn 0.0000 -0.8627 0.5057
vn -0.4133 0.3604 0.8362
vn 0.0000 -0.2953 0.9554
vn 0.4133 0.3604 0.8362
vn 0.0000 0.3958 0.9183
vn 0.9739 0.0898 0.2083
vn 0.0000 0.9600 -0.2799
vn -0.9739 0.0898 0.2083
vn 0.4457 0.0000 0.8952
vn 0.3231 0.9441 -0.0658
vn 0.0540 0.3328 0.9414
usemtl Material.001
s off
f 4/1/1 27/2/1 12/3/1
f 3/4/2 8/5/2 7/6/2
f 6/7/3 21/8/3 8/9/3
f 7/10/4 1/11/4 3/12/4
f 8/9/5 2/13/5 6/7/5
f 11/14/6 16/15/6 15/16/6
f 4/1/7 29/17/7 2/13/7
f 1/11/8 9/18/8 3/12/8
f 13/19/9 20/20/9 16/21/9
f 10/22/6 13/23/6 9/18/6
f 9/24/6 16/21/6 12/25/6
f 11/26/6 14/27/6 10/28/6
f 19/29/6 17/30/6 18/31/6
f 15/32/10 18/33/10 14/27/10
f 16/15/8 19/34/8 15/16/8
f 14/35/11 17/36/11 13/23/11
f 21/8/12 23/37/12 22/38/12
f 7/6/13 21/8/13 22/38/13
f 7/10/8 23/37/8 5/39/8
f 25/40/14 43/41/14 27/2/14
f 9/24/6 27/42/6 28/43/6
f 9/18/8 26/44/8 3/12/8
f 3/4/12 25/45/12 4/46/12
f 32/47/15 34/48/15 30/49/15
f 11/14/16 32/47/16 12/3/16
f 12/3/17 30/49/17 4/1/17
f 2/50/18 31/51/18 11/52/18
f 36/53/19 38/54/19 34/48/19
f 29/17/12 34/48/12 33/55/12
f 29/56/20 35/57/20 31/51/20
f 31/58/6 36/53/6 32/47/6
f 38/54/21 39/59/21 37/60/21
f 33/55/22 38/54/22 37/60/22
f 35/57/23 37/61/23 39/62/23
f 35/63/24 40/64/24 36/53/24
f 44/65/25 46/66/25 42/67/25
f 27/42/26 44/68/26 28/43/26
f 28/69/27 42/67/27 26/44/27
f 25/45/28 42/70/28 41/71/28
f 46/72/29 47/73/29 45/74/29
f 42/70/30 45/74/30 41/71/30
f 43/41/31 45/75/31 47/76/31
f 44/68/32 47/73/32 48/77/32
f 4/1/1 25/40/1 27/2/1
f 3/4/33 4/46/33 8/5/33
f 6/7/3 24/78/3 21/8/3
f 7/10/4 5/39/4 1/11/4
f 8/9/34 4/1/34 2/13/34
f 11/14/6 12/3/6 16/15/6
f 4/1/7 30/49/7 29/17/7
f 1/11/8 10/22/8 9/18/8
f 13/19/9 17/30/9 20/20/9
f 10/22/6 14/35/6 13/23/6
f 9/24/6 13/19/6 16/21/6
f 11/26/6 15/32/6 14/27/6
f 19/29/6 20/20/6 17/30/6
f 15/32/10 19/79/10 18/33/10
f 16/15/8 20/80/8 19/34/8
f 14/35/11 18/81/11 17/36/11
f 21/8/12 24/78/12 23/37/12
f 7/6/35 8/5/35 21/8/35
f 7/10/8 22/38/8 23/37/8
f 25/40/14 41/82/14 43/41/14
f 9/24/6 12/25/6 27/42/6
f 9/18/8 28/69/8 26/44/8
f 3/4/12 26/83/12 25/45/12
f 32/47/15 36/53/15 34/48/15
f 11/14/16 31/58/16 32/47/16
f 12/3/17 32/47/17 30/49/17
f 2/50/18 29/56/18 31/51/18
f 36/53/19 40/64/19 38/54/19
f 29/17/12 30/49/12 34/48/12
f 29/56/20 33/84/20 35/57/20
f 31/58/6 35/63/6 36/53/6
f 38/54/21 40/64/21 39/59/21
f 33/55/22 34/48/22 38/54/22
f 35/57/23 33/84/23 37/61/23
f 35/63/24 39/59/24 40/64/24
f 44/65/25 48/85/25 46/66/25
f 27/42/26 43/86/26 44/68/26
f 28/69/27 44/65/27 42/67/27
f 25/45/28 26/83/28 42/70/28
f 46/72/29 48/77/29 47/73/29
f 42/70/30 46/72/30 45/74/30
f 43/41/31 41/82/31 45/75/31
f 44/68/32 43/86/32 47/73/32
f 52/87/36 60/88/36 75/89/36
f 51/90/37 55/91/37 56/92/37
f 54/93/3 56/94/3 69/95/3
f 55/96/4 51/97/4 49/98/4
f 56/94/5 54/93/5 50/99/5
f 59/100/6 63/101/6 64/102/6
f 52/87/38 50/99/38 77/103/38
f 49/98/8 51/97/8 57/104/8
f 61/105/10 64/106/10 68/107/10
f 58/108/6 57/104/6 61/109/6
f 57/110/6 60/111/6 64/106/6
f 59/112/6 58/113/6 62/114/6
f 67/115/6 66/116/6 65/117/6
f 63/118/9 62/114/9 66/119/9
f 64/102/8 63/101/8 67/120/8
f 62/121/11 61/109/11 65/122/11
f 69/95/12 70/123/12 71/124/12
f 55/91/39 70/123/39 69/95/39
f 55/96/8 53/125/8 71/124/8
f 73/126/40 75/89/40 91/127/40
f 57/110/6 76/128/6 75/129/6
f 57/104/8 51/97/8 74/130/8
f 51/90/12 52/131/12 73/132/12
f 80/133/41 78/134/41 82/135/41
f 59/100/42 60/88/42 80/133/42
f 60/88/43 52/87/43 78/134/43
f 50/136/44 59/137/44 79/138/44
f 84/139/45 82/135/45 86/140/45
f 77/103/12 81/141/12 82/135/12
f 77/142/46 79/138/46 83/143/46
f 79/144/6 80/133/6 84/139/6
f 86/140/47 85/145/47 87/146/47
f 81/141/48 85/145/48 86/140/48
f 83/143/49 87/147/49 85/148/49
f 83/149/50 84/139/50 88/150/50
f 92/151/51 90/152/51 94/153/51
f 75/129/52 76/128/52 92/154/52
f 76/155/53 74/130/53 90/152/53
f 73/132/54 89/156/54 90/157/54
f 94/158/55 93/159/55 95/160/55
f 90/157/56 89/156/56 93/159/56
f 91/127/57 95/161/57 93/162/57
f 92/154/58 96/163/58 95/160/58
f 52/87/36 75/89/36 73/126/36
f 51/90/59 56/92/59 52/131/59
f 54/93/3 69/95/3 72/164/3
f 55/96/4 49/98/4 53/125/4
f 56/94/60 50/99/60 52/87/60
f 59/100/6 64/102/6 60/88/6
f 52/87/38 77/103/38 78/134/38
f 49/98/8 57/104/8 58/108/8
f 61/105/10 68/107/10 65/117/10
f 58/108/6 61/109/6 62/121/6
f 57/110/6 64/106/6 61/105/6
f 59/112/6 62/114/6 63/118/6
f 67/115/6 65/117/6 68/107/6
f 63/118/9 66/119/9 67/165/9
f 64/102/8 67/120/8 68/166/8
f 62/121/11 65/122/11 66/167/11
f 69/95/12 71/124/12 72/164/12
f 55/91/61 69/95/61 56/92/61
f 55/96/8 71/124/8 70/123/8
f 73/126/40 91/127/40 89/168/40
f 57/110/6 75/129/6 60/111/6
f 57/104/8 74/130/8 76/155/8
f 51/90/12 73/132/12 74/169/12
f 80/133/41 82/135/41 84/139/41
f 59/100/42 80/133/42 79/144/42
f 60/88/43 78/134/43 80/133/43
f 50/136/44 79/138/44 77/142/44
f 84/139/45 86/140/45 88/150/45
f 77/103/12 82/135/12 78/134/12
f 77/142/46 83/143/46 81/170/46
f 79/144/6 84/139/6 83/149/6
f 86/140/47 87/146/47 88/150/47
f 81/141/48 86/140/48 82/135/48
f 83/143/49 85/148/49 81/170/49
f 83/149/50 88/150/50 87/146/50
f 92/151/51 94/153/51 96/171/51
f 75/129/52 92/154/52 91/172/52
f 76/155/53 90/152/53 92/151/53
f 73/132/54 90/157/54 74/169/54
f 94/158/55 95/160/55 96/163/55
f 90/157/56 93/159/56 94/158/56
f 91/127/57 93/162/57 89/168/57
f 92/154/58 95/160/58 91/172/58
