# Blender 3.4.1
# www.blender.org
mtllib tank.mtl
o Cube
v 1.000000 -0.131377 -0.002468
v 1.000000 0.684278 -0.002468
v 1.000064 -0.131377 1.166728
v 1.000064 0.765750 1.166728
v -1.000000 -0.170872 -0.004492
v -1.000000 0.011935 -0.004492
v -0.999987 -0.170872 0.235551
v -0.999991 0.011935 0.170927
v 1.587174 -0.131377 1.166696
v 1.587110 -0.131377 -0.002501
v 1.587110 0.684278 -0.002501
v 1.587174 0.765750 1.166696
v 1.587153 -0.029093 0.787108
v 1.587131 -0.029093 0.377087
v 1.587131 0.660647 0.377087
v 1.587153 0.660647 0.787108
v 1.154870 -0.029093 0.787132
v 1.154847 -0.029093 0.377111
v 1.154847 0.660647 0.377111
v 1.154870 0.660647 0.787132
v -1.327029 -0.041157 0.170945
v -1.327025 -0.170872 0.235570
v -1.327039 -0.170872 -0.004474
v -1.327039 -0.041157 -0.004474
v 1.000080 0.155291 1.445837
v 1.000087 -0.131377 1.569386
v 1.587190 0.155291 1.445805
v 1.587196 -0.131377 1.569353
v 1.160904 0.814199 0.310422
v 1.160933 0.851019 0.838825
v 1.426240 0.814199 0.310408
v 1.426269 0.851019 0.838810
v 1.160904 0.909616 0.303774
v 1.160913 0.946436 0.484741
v 1.426240 0.909616 0.303759
v 1.426250 0.946436 0.484726
v 1.261149 1.272626 0.301109
v 1.261151 1.281624 0.345336
v 1.325994 1.272626 0.301106
v 1.325997 1.281624 0.345332
v 1.210144 0.090466 1.577595
v 1.210146 0.008927 1.612737
v 1.377140 0.090466 1.577586
v 1.377142 0.008927 1.612728
v 1.258407 0.148899 1.777993
v 1.258408 0.114479 1.792827
v 1.328899 0.148899 1.777989
v 1.328900 0.114479 1.792823
v 1.000000 -0.131377 0.002358
v 1.000000 0.684278 0.002358
v 0.999936 -0.131377 -1.166838
v 0.999936 0.765750 -1.166838
v -1.000000 -0.170872 0.004603
v -1.000000 0.011935 0.004603
v -1.000013 -0.170872 -0.235441
v -1.000009 0.011935 -0.170816
v 1.587046 -0.131377 -1.166871
v 1.587110 -0.131377 0.002325
v 1.587110 0.684278 0.002325
v 1.587046 0.765750 -1.166871
v 1.587067 -0.029093 -0.787283
v 1.587089 -0.029093 -0.377262
v 1.587089 0.660647 -0.377262
v 1.587067 0.660647 -0.787283
v 1.154783 -0.029093 -0.787260
v 1.154805 -0.029093 -0.377238
v 1.154805 0.660647 -0.377238
v 1.154783 0.660647 -0.787260
v -1.327048 -0.041157 -0.170798
v -1.327051 -0.170872 -0.235423
v -1.327038 -0.170872 0.004621
v -1.327038 -0.041157 0.004621
v 0.999920 0.155291 -1.445947
v 0.999913 -0.131377 -1.569496
v 1.587030 0.155291 -1.445980
v 1.587023 -0.131377 -1.569528
v 1.160870 0.814199 -0.310551
v 1.160841 0.851019 -0.838953
v 1.426206 0.814199 -0.310565
v 1.426177 0.851019 -0.838968
v 1.160870 0.909616 -0.303902
v 1.160860 0.946436 -0.484869
v 1.426206 0.909616 -0.303916
v 1.426196 0.946436 -0.484883
v 1.261116 1.272626 -0.301249
v 1.261113 1.281624 -0.345475
v 1.325961 1.272626 -0.301252
v 1.325959 1.281624 -0.345479
v 1.209970 0.090466 -1.577729
v 1.209968 0.008927 -1.612871
v 1.376966 0.090466 -1.577738
v 1.376964 0.008927 -1.612880
v 1.258211 0.148899 -1.778131
v 1.258210 0.114479 -1.792966
v 1.328703 0.148899 -1.778135
v 1.328702 0.114479 -1.792969
vn 0.0001 0.4158 0.9095
vn -0.4070 0.3044 0.8612
vn -0.1602 0.9871 -0.0000
vn 0.0197 -0.9998 -0.0000
vn -0.3186 0.9479 -0.0000
vn 1.0000 -0.0000 -0.0001
vn -0.5568 0.8286 -0.0577
vn -0.0000 -1.0000 -0.0000
vn -0.0001 -0.0000 -1.0000
vn 0.0001 -0.0000 1.0000
vn -0.0000 1.0000 -0.0000
vn -1.0000 -0.0000 0.0001
vn -0.0000 0.4459 0.8951
vn -0.0000 0.8973 0.4414
vn -0.0000 0.9656 0.2602
vn 0.5568 0.8286 -0.0578
vn -0.0000 0.9678 0.2517
vn -0.0000 0.9236 -0.3835
vn 0.0001 0.3840 0.9233
vn -0.0001 -0.0695 -0.9976
vn -0.0000 0.9799 -0.1994
vn -0.9626 0.2654 -0.0540
vn -0.0001 -0.0073 -1.0000
vn 0.9626 0.2654 -0.0541
vn -0.0000 -0.8627 0.5057
vn 0.4134 0.3604 0.8362
vn 0.0001 -0.2953 0.9554
vn -0.4133 0.3604 0.8362
vn 0.0001 0.3958 0.9183
vn -0.9739 0.0898 0.2084
vn -0.0000 0.9600 -0.2799
vn 0.9739 0.0898 0.2083
vn -0.4457 -0.0000 0.8952
vn -0.3231 0.9441 -0.0658
vn -0.0540 0.3328 0.9414
vn -0.0001 0.4158 -0.9095
vn -0.4071 0.3044 -0.8612
vn -0.5568 0.8286 0.0578
vn -0.0000 0.4459 -0.8951
vn -0.0000 0.8973 -0.4414
vn -0.0000 0.9656 -0.2602
vn 0.5568 0.8286 0.0577
vn -0.0000 0.9678 -0.2517
vn -0.0000 0.9236 0.3835
vn -0.0001 0.3840 -0.9233
vn 0.0001 -0.0695 0.9976
vn -0.0000 0.9799 0.1994
vn -0.9626 0.2654 0.0541
vn 0.0001 -0.0073 1.0000
vn 0.9626 0.2654 0.0540
vn -0.0000 -0.8627 -0.5057
vn 0.4133 0.3604 -0.8362
vn -0.0001 -0.2953 -0.9554
vn -0.4134 0.3604 -0.8362
vn -0.0001 0.3958 -0.9183
vn -0.9739 0.0898 -0.2083
vn -0.0000 0.9600 0.2799
vn 0.9739 0.0898 -0.2084
vn -0.4458 -0.0000 -0.8951
vn -0.3231 0.9441 0.0658
vn -0.0541 0.3328 -0.9414
vt 0.910583 0.568181
vt 0.431819 0.089417
vt 0.000000 0.000000
vt 0.706124 0.772640
vt 0.431819 0.772641
vt 0.227359 0.568181
vt 0.227360 0.293876
vt 0.627567 0.459682
vt 0.540317 0.372432
vt 0.540317 0.489625
vt 0.597625 0.489625
vt 0.510375 0.402374
vt 0.510375 0.459682
vt 0.380378 0.824081
vt 0.757564 0.824081
vt 0.962024 0.242435
vt 0.962024 0.619621
vt 0.000000 0.000000
vt 0.757564 0.037975
vt 0.380378 0.037977
vt 0.175918 0.619622
vt 0.175919 0.242436
vt 0.824081 0.824081
vt 0.313861 0.824081
vt 0.962024 0.175918
vt 0.962024 0.686138
vt 0.313862 0.037977
vt 0.824081 0.037975
vt 0.175918 0.686139
vt 0.175919 0.175920
vt 0.275986 0.861957
vt 0.861956 0.861956
vt 0.138043 0.999900
vt 0.999899 0.138043
vt 0.999899 0.724013
vt 0.000100 0.861957
vt 0.861956 0.000100
vt 0.275987 0.000102
vt 0.138043 0.724014
vt 0.138044 0.138044
vt 0.539029 0.431028
vt 0.568971 0.460971
vt 0.598913 0.431028
vt 0.568971 0.401086
vt 0.227360 0.293876
vt 0.227359 0.568181
vt 0.706124 0.772640
vt 0.431819 0.772641
vt 0.175919 0.242436
vt 0.175918 0.619622
vt 0.380378 0.824081
vt 0.757564 0.824081
vt 0.431819 0.089417
vt 0.000000 0.000000
vt 0.227360 0.293876
vt 0.000000 0.000000
vt 0.380378 0.037977
vt 0.175919 0.242436
vt 0.431819 0.089417
vt 0.000000 0.000000
vt 0.227360 0.293876
vt 0.000000 0.000000
vt 0.380378 0.037977
vt 0.175919 0.242436
vt 0.431819 0.089417
vt 0.000000 0.000000
vt 0.227360 0.293876
vt 0.000000 0.000000
vt 0.380378 0.037977
vt 0.175919 0.242436
vt 0.227359 0.568181
vt 0.227360 0.293876
vt 0.706124 0.772640
vt 0.431819 0.772641
vt 0.175919 0.242436
vt 0.175918 0.619622
vt 0.757564 0.824081
vt 0.380378 0.824081
vt 0.227359 0.568181
vt 0.227360 0.293876
vt 0.706124 0.772640
vt 0.431819 0.772641
vt 0.175919 0.242436
vt 0.175918 0.619622
vt 0.757564 0.824081
vt 0.380378 0.824081
vt 0.910583 0.568181
vt 0.431819 0.089417
vt 0.000000 0.000000
vt 0.706124 0.772640
vt 0.431819 0.772641
vt 0.227359 0.568181
vt 0.227360 0.293876
vt 0.627567 0.459682
vt 0.540317 0.372432
vt 0.540317 0.489625
vt 0.597625 0.489625
vt 0.510375 0.402374
vt 0.510375 0.459682
vt 0.380378 0.824081
vt 0.757564 0.824081
vt 0.962024 0.242435
vt 0.962024 0.619621
vt 0.000000 0.000000
vt 0.757564 0.037975
vt 0.380378 0.037977
vt 0.175918 0.619622
vt 0.175919 0.242436
vt 0.824081 0.824081
vt 0.313861 0.824081
vt 0.962024 0.175918
vt 0.962024 0.686138
vt 0.313862 0.037977
vt 0.824081 0.037975
vt 0.175918 0.686139
vt 0.175919 0.175920
vt 0.275986 0.861957
vt 0.861956 0.861956
vt 0.138043 0.999900
vt 0.999899 0.138043
vt 0.999899 0.724013
vt 0.000100 0.861957
vt 0.861956 0.000100
vt 0.275987 0.000102
vt 0.138043 0.724014
vt 0.138044 0.138044
vt 0.539029 0.431028
vt 0.568971 0.460971
vt 0.598913 0.431028
vt 0.568971 0.401086
vt 0.227360 0.293876
vt 0.227359 0.568181
vt 0.706124 0.772640
vt 0.431819 0.772641
vt 0.175919 0.242436
vt 0.175918 0.619622
vt 0.380378 0.824081
vt 0.757564 0.824081
vt 0.431819 0.089417
vt 0.000000 0.000000
vt 0.227360 0.293876
vt 0.000000 0.000000
vt 0.380378 0.037977
vt 0.175919 0.242436
vt 0.431819 0.089417
vt 0.000000 0.000000
vt 0.227360 0.293876
vt 0.000000 0.000000
vt 0.380378 0.037977
vt 0.175919 0.242436
vt 0.431819 0.089417
vt 0.000000 0.000000
vt 0.227360 0.293876
vt 0.000000 0.000000
vt 0.380378 0.037977
vt 0.175919 0.242436
vt 0.227359 0.568181
vt 0.227360 0.293876
vt 0.706124 0.772640
vt 0.431819 0.772641
vt 0.175919 0.242436
vt 0.175918 0.619622
vt 0.757564 0.824081
vt 0.380378 0.824081
vt 0.227359 0.568181
vt 0.227360 0.293876
vt 0.706124 0.772640
vt 0.431819 0.772641
vt 0.175919 0.242436
vt 0.175918 0.619622
vt 0.757564 0.824081
vt 0.380378 0.824081
s 0
usemtl Material.001
f 4/7/1 27/49/1 12/22/1
f 3/5/2 8/13/2 7/10/2
f 6/9/3 21/41/3 8/12/3
f 7/11/4 1/1/4 3/4/4
f 8/12/5 2/2/5 6/9/5
f 11/20/6 16/30/6 15/27/6
f 4/7/7 29/53/7 2/2/7
f 1/1/8 9/15/8 3/4/8
f 13/24/9 20/39/9 16/29/9
f 10/17/6 13/23/6 9/15/6
f 9/14/6 16/29/6 12/21/6
f 11/19/6 14/25/6 10/16/6
f 19/36/6 17/31/6 18/33/6
f 15/28/10 18/34/10 14/25/10
f 16/30/8 19/38/8 15/27/8
f 14/26/11 17/32/11 13/23/11
f 21/41/12 23/43/12 22/42/12
f 7/10/13 21/41/13 22/42/13
f 7/11/8 23/43/8 5/8/8
f 25/45/14 43/75/14 27/49/14
f 9/14/6 27/50/6 28/51/6
f 9/15/8 26/47/8 3/4/8
f 3/5/12 25/46/12 4/6/12
f 32/58/15 34/61/15 30/55/15
f 11/20/16 32/58/16 12/22/16
f 12/22/17 30/55/17 4/7/17
f 2/3/18 31/56/18 11/18/18
f 36/64/19 38/67/19 34/61/19
f 29/53/12 34/61/12 33/59/12
f 29/54/20 35/62/20 31/56/20
f 31/57/6 36/64/6 32/58/6
f 38/67/21 39/69/21 37/65/21
f 33/59/22 38/67/22 37/65/22
f 35/62/23 37/66/23 39/68/23
f 35/63/24 40/70/24 36/64/24
f 44/77/25 46/81/25 42/73/25
f 27/50/26 44/78/26 28/51/26
f 28/52/27 42/73/27 26/47/27
f 25/46/28 42/74/28 41/71/28
f 46/82/29 47/84/29 45/79/29
f 42/74/30 45/79/30 41/71/30
f 43/75/31 45/80/31 47/83/31
f 44/78/32 47/84/32 48/86/32
f 4/7/1 25/45/1 27/49/1
f 3/5/33 4/6/33 8/13/33
f 6/9/3 24/44/3 21/41/3
f 7/11/4 5/8/4 1/1/4
f 8/12/34 4/7/34 2/2/34
f 11/20/6 12/22/6 16/30/6
f 4/7/7 30/55/7 29/53/7
f 1/1/8 10/17/8 9/15/8
f 13/24/9 17/31/9 20/39/9
f 10/17/6 14/26/6 13/23/6
f 9/14/6 13/24/6 16/29/6
f 11/19/6 15/28/6 14/25/6
f 19/36/6 20/39/6 17/31/6
f 15/28/10 19/37/10 18/34/10
f 16/30/8 20/40/8 19/38/8
f 14/26/11 18/35/11 17/32/11
f 21/41/12 24/44/12 23/43/12
f 7/10/35 8/13/35 21/41/35
f 7/11/8 22/42/8 23/43/8
f 25/45/14 41/72/14 43/75/14
f 9/14/6 12/21/6 27/50/6
f 9/15/8 28/52/8 26/47/8
f 3/5/12 26/48/12 25/46/12
f 32/58/15 36/64/15 34/61/15
f 11/20/16 31/57/16 32/58/16
f 12/22/17 32/58/17 30/55/17
f 2/3/18 29/54/18 31/56/18
f 36/64/19 40/70/19 38/67/19
f 29/53/12 30/55/12 34/61/12
f 29/54/20 33/60/20 35/62/20
f 31/57/6 35/63/6 36/64/6
f 38/67/21 40/70/21 39/69/21
f 33/59/22 34/61/22 38/67/22
f 35/62/23 33/60/23 37/66/23
f 35/63/24 39/69/24 40/70/24
f 44/77/25 48/85/25 46/81/25
f 27/50/26 43/76/26 44/78/26
f 28/52/27 44/77/27 42/73/27
f 25/46/28 26/48/28 42/74/28
f 46/82/29 48/86/29 47/84/29
f 42/74/30 46/82/30 45/79/30
f 43/75/31 41/72/31 45/80/31
f 44/78/32 43/76/32 47/84/32
f 52/93/36 60/108/36 75/135/36
f 51/91/37 55/96/37 56/99/37
f 54/95/3 56/98/3 69/127/3
f 55/97/4 51/90/4 49/87/4
f 56/98/5 54/95/5 50/88/5
f 59/106/6 63/113/6 64/116/6
f 52/93/38 50/88/38 77/139/38
f 49/87/8 51/90/8 57/101/8
f 61/110/10 64/115/10 68/125/10
f 58/103/6 57/101/6 61/109/6
f 57/100/6 60/107/6 64/115/6
f 59/105/6 58/102/6 62/111/6
f 67/122/6 66/119/6 65/117/6
f 63/114/9 62/111/9 66/120/9
f 64/116/8 63/113/8 67/124/8
f 62/112/11 61/109/11 65/118/11
f 69/127/12 70/128/12 71/129/12
f 55/96/39 70/128/39 69/127/39
f 55/97/8 53/94/8 71/129/8
f 73/131/40 75/135/40 91/161/40
f 57/100/6 76/137/6 75/136/6
f 57/101/8 51/90/8 74/133/8
f 51/91/12 52/92/12 73/132/12
f 80/144/41 78/141/41 82/147/41
f 59/106/42 60/108/42 80/144/42
f 60/108/43 52/93/43 78/141/43
f 50/89/44 59/104/44 79/142/44
f 84/150/45 82/147/45 86/153/45
f 77/139/12 81/145/12 82/147/12
f 77/140/46 79/142/46 83/148/46
f 79/143/6 80/144/6 84/150/6
f 86/153/47 85/151/47 87/155/47
f 81/145/48 85/151/48 86/153/48
f 83/148/49 87/154/49 85/152/49
f 83/149/50 84/150/50 88/156/50
f 92/163/51 90/159/51 94/167/51
f 75/136/52 76/137/52 92/164/52
f 76/138/53 74/133/53 90/159/53
f 73/132/54 89/157/54 90/160/54
f 94/168/55 93/165/55 95/170/55
f 90/160/56 89/157/56 93/165/56
f 91/161/57 95/169/57 93/166/57
f 92/164/58 96/172/58 95/170/58
f 52/93/36 75/135/36 73/131/36
f 51/91/59 56/99/59 52/92/59
f 54/95/3 69/127/3 72/130/3
f 55/97/4 49/87/4 53/94/4
f 56/98/60 50/88/60 52/93/60
f 59/106/6 64/116/6 60/108/6
f 52/93/38 77/139/38 78/141/38
f 49/87/8 57/101/8 58/103/8
f 61/110/10 68/125/10 65/117/10
f 58/103/6 61/109/6 62/112/6
f 57/100/6 64/115/6 61/110/6
f 59/105/6 62/111/6 63/114/6
f 67/122/6 65/117/6 68/125/6
f 63/114/9 66/120/9 67/123/9
f 64/116/8 67/124/8 68/126/8
f 62/112/11 65/118/11 66/121/11
f 69/127/12 71/129/12 72/130/12
f 55/96/61 69/127/61 56/99/61
f 55/97/8 71/129/8 70/128/8
f 73/131/40 91/161/40 89/158/40
f 57/100/6 75/136/6 60/107/6
f 57/101/8 74/133/8 76/138/8
f 51/91/12 73/132/12 74/134/12
f 80/144/41 82/147/41 84/150/41
f 59/106/42 80/144/42 79/143/42
f 60/108/43 78/141/43 80/144/43
f 50/89/44 79/142/44 77/140/44
f 84/150/45 86/153/45 88/156/45
f 77/139/12 82/147/12 78/141/12
f 77/140/46 83/148/46 81/146/46
f 79/143/6 84/150/6 83/149/6
f 86/153/47 87/155/47 88/156/47
f 81/145/48 86/153/48 82/147/48
f 83/148/49 85/152/49 81/146/49
f 83/149/50 88/156/50 87/155/50
f 92/163/51 94/167/51 96/171/51
f 75/136/52 92/164/52 91/162/52
f 76/138/53 90/159/53 92/163/53
f 73/132/54 90/160/54 74/134/54
f 94/168/55 95/170/55 96/172/55
f 90/160/56 93/165/56 94/168/56
f 91/161/57 93/166/57 89/158/57
f 92/164/58 95/170/58 91/162/58
